#!OML:ASF H:\Dans Jumps\Project 1\Capture day 1\Session 1\subject.ASF
:FULLY-SPECIFIED
:DEGREES
653
root 0.462131 17.7394 -3.0801 6.60051 -0.547589 -1.39644
lowerback 0.0706146 -0.41242 0.103481
upperback 3.34467 -0.604296 1.78767
thorax 3.41564 -0.327707 1.76361
lowerneck -12.6261 0.306943 -2.03846
upperneck 35.9609 0.776492 0.66959
head 14.4614 0.142533 0.757507
rclavicle -6.16232e-015 9.14409e-015
rhumerus -26.6186 -15.5603 -79.6203
rradius 23.2205
rwrist 33.4297
rhand -18.5321 -26.1608
rfingers 7.12502
rthumb 7.75683 -55.9985
lclavicle -6.16232e-015 9.14409e-015
lhumerus -24.2622 -4.70351 91.4168
lradius 17.832
lwrist 9.55572
lhand -24.7388 -2.75046
lfingers 7.12502
lthumb 1.76381 27.222
rfemur -17.1409 -0.817097 19.0472
rtibia 23.0376
rfoot -11.5598 -1.01987
rtoes 13.8165
lfemur -15.4346 7.2271 -17.6822
ltibia 20.1607
lfoot -9.00039 2.99647
ltoes 3.0736
654
root 0.46254 17.7392 -3.07985 6.59577 -0.552087 -1.39817
lowerback 0.0712933 -0.410605 0.108377
upperback 3.34499 -0.601937 1.78682
thorax 3.41544 -0.326374 1.76006
lowerneck -12.6153 0.308828 -2.03724
upperneck 35.9818 0.779728 0.667057
head 14.4687 0.143555 0.75688
rclavicle -6.95746e-016 -9.93923e-015
rhumerus -26.6305 -15.5806 -79.6141
rradius 23.2145
rwrist 33.4363
rhand -18.5223 -26.1548
rfingers 7.12502
rthumb 7.76622 -55.9922
lclavicle -6.95746e-016 -9.93923e-015
lhumerus -24.2754 -4.69733 91.4195
lradius 17.8386
lwrist 9.55829
lhand -24.7783 -2.82191
lfingers 7.12502
lthumb 1.72566 27.1509
rfemur -17.1371 -0.812331 19.0476
rtibia 23.0411
rfoot -11.5591 -1.02162
rtoes 13.8049
lfemur -15.4319 7.22687 -17.6813
ltibia 20.1689
lfoot -9.00079 3.00364
ltoes 3.05492
655
root 0.462905 17.739 -3.07958 6.58976 -0.555444 -1.39914
lowerback 0.0734271 -0.409699 0.111054
upperback 3.34509 -0.600755 1.78679
thorax 3.41428 -0.325703 1.75858
lowerneck -12.6029 0.311537 -2.0394
upperneck 36.0036 0.78439 0.666538
head 14.476 0.14499 0.757903
rclavicle -5.96354e-016 -1.55052e-014
rhumerus -26.6408 -15.5966 -79.6083
rradius 23.2074
rwrist 33.4453
rhand -18.5104 -26.1516
rfingers 7.12502
rthumb 7.77768 -55.9886
lclavicle -5.96354e-016 -1.55052e-014
lhumerus -24.2868 -4.6946 91.4243
lradius 17.8428
lwrist 9.56392
lhand -24.8727 -2.97729
lfingers 7.12502
lthumb 1.6345 26.9962
rfemur -17.1309 -0.804882 19.0471
rtibia 23.0438
rfoot -11.5598 -1.02807
rtoes 13.792
lfemur -15.4259 7.22561 -17.6806
ltibia 20.1734
lfoot -9.00086 3.00936
ltoes 3.03528
656
root 0.463256 17.739 -3.07919 6.583 -0.558862 -1.39805
lowerback 0.0745055 -0.409292 0.111019
upperback 3.34638 -0.600214 1.78654
thorax 3.41498 -0.325439 1.75836
lowerneck -12.594 0.315149 -2.04046
upperneck 36.0264 0.790823 0.664254
head 14.4845 0.147076 0.758309
rclavicle 7.65321e-015 -2.78299e-015
rhumerus -26.6465 -15.6099 -79.6043
rradius 23.1984
rwrist 33.4556
rhand -18.4978 -26.1542
rfingers 7.12502
rthumb 7.78984 -55.9907
lclavicle 7.65321e-015 -2.78299e-015
lhumerus -24.2968 -4.69338 91.4301
lradius 17.8464
lwrist 9.56736
lhand -25.0205 -3.20836
lfingers 7.12502
lthumb 1.49177 26.7662
rfemur -17.123 -0.797406 19.0443
rtibia 23.0462
rfoot -11.5622 -1.03619
rtoes 13.7754
lfemur -15.4166 7.22482 -17.6819
ltibia 20.1741
lfoot -9.00153 3.01374
ltoes 3.0215
657
root 0.463596 17.739 -3.07868 6.57667 -0.560709 -1.39482
lowerback 0.0737048 -0.409073 0.109236
upperback 3.34799 -0.599899 1.78557
thorax 3.4171 -0.325332 1.75836
lowerneck -12.5826 0.3177 -2.04015
upperneck 36.0448 0.795697 0.660584
head 14.4904 0.148544 0.757607
rclavicle -1.68967e-015 -1.47101e-014
rhumerus -26.6504 -15.626 -79.6002
rradius 23.1891
rwrist 33.4695
rhand -18.4881 -26.1526
rfingers 7.12502
rthumb 7.79926 -55.9888
lclavicle -1.68967e-015 -1.47101e-014
lhumerus -24.3069 -4.69682 91.4375
lradius 17.8504
lwrist 9.56941
lhand -25.2005 -3.47554
lfingers 7.12502
lthumb 1.31795 26.5001
rfemur -17.1148 -0.792644 19.0393
rtibia 23.0483
rfoot -11.565 -1.04383
rtoes 13.7661
lfemur -15.4055 7.2237 -17.6854
ltibia 20.1718
lfoot -9.00328 3.01554
ltoes 3.02404
658
root 0.463922 17.739 -3.07817 6.57198 -0.560351 -1.38993
lowerback 0.0713128 -0.409198 0.106298
upperback 3.3499 -0.600013 1.78355
thorax 3.42044 -0.32546 1.75792
lowerneck -12.5765 0.320428 -2.03591
upperneck 36.0643 0.800251 0.655852
head 14.4981 0.15025 0.75576
rclavicle 3.97569e-016 -8.34896e-015
rhumerus -26.6524 -15.6428 -79.5982
rradius 23.1821
rwrist 33.4821
rhand -18.4821 -26.1518
rfingers 7.12502
rthumb 7.80499 -55.9877
lclavicle 3.97569e-016 -8.34896e-015
lhumerus -24.3159 -4.70379 91.4445
lradius 17.8554
lwrist 9.56976
lhand -25.3728 -3.72775
lfingers 7.12502
lthumb 1.15153 26.2489
rfemur -17.1085 -0.789622 19.0327
rtibia 23.0509
rfoot -11.5682 -1.05313
rtoes 13.7517
lfemur -15.3962 7.22194 -17.6909
ltibia 20.168
lfoot -9.00599 3.01531
ltoes 3.03498
659
root 0.464253 17.739 -3.07754 6.56792 -0.557821 -1.38547
lowerback 0.0673105 -0.409403 0.104664
upperback 3.35162 -0.600263 1.78122
thorax 3.42448 -0.325614 1.75639
lowerneck -12.5709 0.322141 -2.03038
upperneck 36.0832 0.802602 0.652044
head 14.5057 0.151322 0.75372
rclavicle 6.26172e-015 8.74653e-015
rhumerus -26.656 -15.6512 -79.5995
rradius 23.1817
rwrist 33.4829
rhand -18.4767 -26.1561
rfingers 7.12502
rthumb 7.81022 -55.9918
lclavicle 6.26172e-015 8.74653e-015
lhumerus -24.3235 -4.71321 91.4509
lradius 17.8624
lwrist 9.57334
lhand -25.4978 -3.89885
lfingers 7.12502
lthumb 1.0308 26.0784
rfemur -17.1026 -0.790673 19.0268
rtibia 23.0542
rfoot -11.5729 -1.05965
rtoes 13.7367
lfemur -15.3876 7.22137 -17.6962
ltibia 20.1647
lfoot -9.00956 3.01265
ltoes 3.04612
660
root 0.464549 17.7389 -3.07689 6.56425 -0.553233 -1.38289
lowerback 0.0641688 -0.409646 0.104617
upperback 3.35246 -0.600582 1.77941
thorax 3.42711 -0.325755 1.75453
lowerneck -12.5669 0.323825 -2.02366
upperneck 36.1031 0.804553 0.648455
head 14.5141 0.152409 0.751513
rclavicle -6.4605e-015 -1.31198e-014
rhumerus -26.6617 -15.6577 -79.6013
rradius 23.1844
rwrist 33.4795
rhand -18.4758 -26.1572
rfingers 7.12502
rthumb 7.81113 -55.9929
lclavicle -6.4605e-015 -1.31198e-014
lhumerus -24.3303 -4.71912 91.4558
lradius 17.8686
lwrist 9.57555
lhand -25.5761 -3.99715
lfingers 7.12502
lthumb 0.955198 25.9805
rfemur -17.0975 -0.79206 19.0232
rtibia 23.0585
rfoot -11.5771 -1.06711
rtoes 13.7238
lfemur -15.3804 7.22133 -17.6994
ltibia 20.163
lfoot -9.01384 3.00849
ltoes 3.05966
661
root 0.464802 17.7387 -3.07627 6.56109 -0.546942 -1.38259
lowerback 0.0615312 -0.409853 0.106723
upperback 3.35238 -0.600891 1.77829
thorax 3.42849 -0.325832 1.75217
lowerneck -12.5646 0.324935 -2.01768
upperneck 36.1253 0.805307 0.646572
head 14.524 0.153095 0.749981
rclavicle -1.26228e-014 8.34896e-015
rhumerus -26.6688 -15.6638 -79.6034
rradius 23.1895
rwrist 33.4718
rhand -18.4779 -26.1597
rfingers 7.12502
rthumb 7.80906 -55.9955
lclavicle -1.26228e-014 8.34896e-015
lhumerus -24.3367 -4.72066 91.4591
lradius 17.8771
lwrist 9.57662
lhand -25.5778 -3.98291
lfingers 7.12502
lthumb 0.953505 25.9947
rfemur -17.0931 -0.793755 19.0223
rtibia 23.0634
rfoot -11.581 -1.0751
rtoes 13.7133
lfemur -15.3757 7.22099 -17.7001
ltibia 20.1638
lfoot -9.01866 3.00426
ltoes 3.06714
662
root 0.465033 17.7385 -3.07565 6.55771 -0.538332 -1.38172
lowerback 0.0602942 -0.411095 0.107666
upperback 3.35186 -0.602545 1.7775
thorax 3.42868 -0.326612 1.75077
lowerneck -12.5646 0.326906 -2.01227
upperneck 36.1497 0.807346 0.645348
head 14.5355 0.154315 0.749058
rclavicle -8.64713e-015 -3.97569e-016
rhumerus -26.6755 -15.6677 -79.6064
rradius 23.1964
rwrist 33.4585
rhand -18.4792 -26.166
rfingers 7.12502
rthumb 7.80785 -56.0018
lclavicle -8.64713e-015 -3.97569e-016
lhumerus -24.3426 -4.72196 91.462
lradius 17.8864
lwrist 9.58146
lhand -25.5724 -3.95849
lfingers 7.12502
lthumb 0.958735 26.0191
rfemur -17.0888 -0.796739 19.0209
rtibia 23.069
rfoot -11.585 -1.0843
rtoes 13.6965
lfemur -15.3722 7.21799 -17.7011
ltibia 20.167
lfoot -9.02413 3.00061
ltoes 3.07488
663
root 0.465221 17.7382 -3.07508 6.55407 -0.528378 -1.3824
lowerback 0.0596423 -0.412207 0.109782
upperback 3.35198 -0.604069 1.77733
thorax 3.42919 -0.327308 1.74935
lowerneck -12.5627 0.328655 -2.00757
upperneck 36.1711 0.808932 0.644881
head 14.5451 0.155388 0.748463
rclavicle -1.59028e-015 -8.34896e-015
rhumerus -26.6797 -15.6769 -79.6084
rradius 23.2019
rwrist 33.4485
rhand -18.48 -26.1711
rfingers 7.12502
rthumb 7.80708 -56.007
lclavicle -1.59028e-015 -8.34896e-015
lhumerus -24.3441 -4.72291 91.4642
lradius 17.8941
lwrist 9.58898
lhand -25.5543 -3.92735
lfingers 7.12502
lthumb 0.976262 26.0502
rfemur -17.0844 -0.798122 19.0212
rtibia 23.0752
rfoot -11.5893 -1.09503
rtoes 13.6895
lfemur -15.3696 7.21297 -17.7001
ltibia 20.1719
lfoot -9.02842 2.99735
ltoes 3.07335
664
root 0.465395 17.738 -3.07454 6.55023 -0.517028 -1.38354
lowerback 0.0585583 -0.414355 0.11158
upperback 3.35353 -0.607021 1.77793
thorax 3.43149 -0.328749 1.74887
lowerneck -12.5629 0.330705 -1.99731
upperneck 36.1892 0.812304 0.636442
head 14.5536 0.156932 0.743862
rclavicle -4.47266e-015 2.38542e-015
rhumerus -26.6801 -15.6903 -79.6099
rradius 23.2066
rwrist 33.4445
rhand -18.4799 -26.1773
rfingers 7.12502
rthumb 7.80712 -56.0132
lclavicle -4.47266e-015 2.38542e-015
lhumerus -24.3425 -4.72349 91.4661
lradius 17.9008
lwrist 9.59576
lhand -25.5378 -3.89721
lfingers 7.12502
lthumb 0.992122 26.0802
rfemur -17.0798 -0.79931 19.0217
rtibia 23.0817
rfoot -11.5955 -1.10718
rtoes 13.6878
lfemur -15.3676 7.20427 -17.6983
ltibia 20.1779
lfoot -9.03201 2.99578
ltoes 3.06276
